<?xml version="1.0" encoding="UTF-8" standalone="no"?>
<!-- Created with Inkscape (http://www.inkscape.org/) -->

<svg
   xmlns:dc="http://purl.org/dc/elements/1.1/"
   xmlns:cc="http://creativecommons.org/ns#"
   xmlns:rdf="http://www.w3.org/1999/02/22-rdf-syntax-ns#"
   xmlns:svg="http://www.w3.org/2000/svg"
   xmlns="http://www.w3.org/2000/svg"
   xmlns:sodipodi="http://sodipodi.sourceforge.net/DTD/sodipodi-0.dtd"
   xmlns:inkscape="http://www.inkscape.org/namespaces/inkscape"
   width="350"
   height="100"
   viewBox="0 0 350 100"
   id="svg2"
   version="1.1"
   inkscape:version="0.91 r13725"
   sodipodi:docname="contact.svg">
  <defs
     id="defs4" />
  <sodipodi:namedview
     id="base"
     pagecolor="#ffffff"
     bordercolor="#666666"
     borderopacity="1.0"
     inkscape:pageopacity="0.0"
     inkscape:pageshadow="2"
     inkscape:zoom="1.4"
     inkscape:cx="170.74482"
     inkscape:cy="101.63629"
     inkscape:document-units="px"
     inkscape:current-layer="layer1"
     showgrid="false"
     units="px"
     inkscape:window-width="1440"
     inkscape:window-height="793"
     inkscape:window-x="0"
     inkscape:window-y="1"
     inkscape:window-maximized="1" />
  <metadata
     id="metadata7">
    <rdf:RDF>
      <cc:Work
         rdf:about="">
        <dc:format>image/svg+xml</dc:format>
        <dc:type
           rdf:resource="http://purl.org/dc/dcmitype/StillImage" />
        <dc:title></dc:title>
      </cc:Work>
    </rdf:RDF>
  </metadata>
  <g
     inkscape:label="Layer 1"
     inkscape:groupmode="layer"
     id="layer1"
     transform="translate(0,-952.36216)">
    <path
       style=""
       d="m 169.78457,1048.9985 c -1.43372,-1.7275 1.41417,-8.1902 6.76207,-15.3452 3.74129,-5.0055 11.65236,-13.0298 17.78889,-18.0436 4.31701,-3.5271 5.20639,-4.7775 5.21514,-7.3316 0.008,-2.3755 -3.73567,-1.4635 -9.81662,2.3914 -2.03368,1.2893 -3.81615,2.3441 -3.96106,2.3441 -0.9557,0 0.55317,-1.7646 6.6868,-7.8201 7.09969,-7.00933 11.05056,-11.76779 12.59185,-15.16577 3.29056,-7.25449 -3.56319,-2.88482 -20.39323,13.00187 -3.15979,2.9827 -7.27709,6.5723 -9.14956,7.9768 -3.5736,2.6806 -8.72779,5.4117 -10.21315,5.4117 -2.21556,0 -3.61023,-2.4378 -3.6152,-6.3192 l -0.003,-1.8507 -2.5939,2.2763 c -5.94923,5.2208 -9.99742,7.9803 -11.75381,8.012 -1.19846,0.022 -1.39318,-1.5609 -0.58259,-4.7348 0.43946,-1.7208 0.74423,-3.1873 0.67726,-3.2589 -0.067,-0.072 -1.4356,1.0425 -3.04142,2.4758 -5.81498,5.1903 -11.60098,8.4073 -13.27914,7.3833 -1.23715,-0.7549 -2.19323,-3.2265 -2.19393,-5.6715 l -8.5e-4,-2.3261 -2.23419,2.1475 c -4.90915,4.719 -9.72891,8.2497 -11.26128,8.2497 -1.25808,0 -1.59317,-1.3778 -1.22027,-5.0174 l 0.28872,-2.8181 -4.67208,4.5561 c -5.08722,4.9609 -6.22843,5.4896 -7.53729,3.4921 -0.38343,-0.5852 -0.79691,-2.3067 -0.91882,-3.8255 l -0.22167,-2.7615 -1.96352,1.7187 c -6.38222,5.5864 -10.51925,8.4447 -12.26839,8.4763 -1.18394,0.021 -1.39401,-1.5574 -0.61524,-4.624 l 0.76637,-3.0178 -1.15602,0.953 c -0.6358,0.5242 -2.46851,2.077 -4.07268,3.4508 -3.75121,3.2124 -6.44716,4.9496 -7.68116,4.9496 -0.90318,0 -0.98059,-0.1822 -0.98059,-2.3075 0,-2.9975 1.97438,-6.8888 7.46262,-14.708 3.84247,-5.4744 4.55164,-6.8159 3.6032,-6.8159 -0.60406,0 -19.5419,19.1333 -22.8508,23.0866 -2.6961,3.2212 -2.80536,3.2981 -4.68624,3.2981 l -1.92578,0 0.66954,-1.0218 c 1.23979,-1.8922 7.08844,-12.1901 7.08844,-12.4809 0,-0.1583 -0.71813,0.3945 -1.59585,1.2285 -4.54524,4.3192 -9.51773,7.1864 -11.28614,6.5077 -0.39495,-0.1515 -1.10923,0.3367 -1.9051,1.3022 -2.75158,3.3382 -9.1547,7.2959 -11.03881,6.823 -1.63185,-0.4096 -2.39598,-2.7691 -2.16863,-6.6965 l 0.18992,-3.2808 -4.78846,4.6034 c -9.58214,9.2117 -14.9584,12.8031 -19.16574,12.8031 -1.9265404,0 -2.4821904,-0.197 -3.7871504,-1.3427 -5.8766,-5.1597 -5.95378,-19.5721 -0.18536,-34.6171 3.2474504,-8.47004 9.5207304,-19.25454 15.0230004,-25.82639 2.79898,-3.34308 8.66311,-8.56784 12.35433,-11.00735 5.57614,-3.68524 12.72534,-6.4243 18.35331,-7.03168 6.99687,-0.7551 7.99638,5.78771 2.6514,17.35621 -2.97471,6.43838 -9.93608,15.85747 -14.61504,19.77491 -4.24107,3.5509 -8.58315,4.98 -9.98786,3.2874 -1.10824,-1.33533 2.92754,-7.20778 4.12828,-6.00703 0.14274,0.14274 -0.16094,0.93985 -0.67484,1.77137 -1.07467,1.73885 -0.56871,1.98469 1.47563,0.717 5.41328,-3.35675 15.2246,-15.7499 19.46507,-24.58728 2.2723,-4.73558 2.69845,-8.42843 1.14019,-9.88018 -2.48993,-2.31972 -11.3615,-0.0635 -18.32307,4.66 -3.63967,2.46954 -10.102,8.77725 -13.19363,12.87797 -5.73141,7.6021 -11.58714,18.95731 -14.58686,28.28635 -2.0544004,6.389 -2.7966204,10.0421 -3.0997904,15.2563 -0.49525,8.5181 1.50287,13.3344 5.5314304,13.333 1.50981,-5e-4 5.79764,-2.2386 9.19206,-4.798 5.08459,-3.8336 14.47185,-12.6699 16.15105,-15.203 3.79164,-5.7199 10.01407,-10.6238 13.49435,-10.6349 1.91567,-0.01 2.68212,0.7951 3.15098,3.2939 0.56009,2.9851 -0.024,5.9631 -1.89206,9.6479 -0.82126,1.6198 -1.40459,3.0338 -1.29629,3.1421 0.1083,0.1083 1.28903,-0.3374 2.62384,-0.9905 1.72574,-0.8443 3.92061,-2.6743 7.59681,-6.3338 4.32345,-4.3039 5.46682,-5.7253 6.98358,-8.6815 0.99754,-1.9442 2.02137,-3.4657 2.27516,-3.3811 0.2538,0.085 0.72496,0.5506 1.04703,1.0357 0.5323,0.8017 0.21945,1.6053 -3.43856,8.8322 -2.21328,4.3726 -4.14697,8.2741 -4.29708,8.6698 -0.15012,0.3958 4.58909,-4.1158 10.53158,-10.0257 5.94249,-5.91 10.98035,-10.7425 11.19524,-10.7389 1.1387,0.019 1.6674,0.9228 1.6674,2.8505 0,2.7965 -2.26554,7.4091 -6.94211,14.1339 -5.37223,7.7251 -5.60482,8.1171 -4.81617,8.1171 0.5001,0 9.19725,-7.5382 11.3662,-9.8516 1.12131,-1.196 2.38447,-3.3577 3.5684,-6.1069 1.00797,-2.3406 3.43562,-7.4633 5.39478,-11.38378 4.11337,-8.23126 4.50086,-7.48676 -3.38734,-6.50822 -4.87403,0.60463 -6.24767,0.54895 -6.24767,-0.25325 0,-0.61711 0.64275,-0.74739 7.6435,-1.54922 l 6.57959,-0.75359 3.42109,-6.06916 c 4.27506,-7.58417 5.39247,-9.01714 7.03138,-9.01714 0.67839,0 1.35562,0.19771 1.50497,0.43937 0.31772,0.51409 -1.33633,4.16387 -4.42114,9.75554 -1.20731,2.18841 -2.13202,4.04202 -2.05491,4.11913 0.0771,0.0771 3.28737,-0.23568 7.13391,-0.69509 3.84654,-0.4594 7.66396,-0.83298 8.48317,-0.83017 1.32564,0.005 1.40791,0.067 0.74804,0.56803 -0.40779,0.3096 -4.52101,1.0814 -9.14049,1.7151 -4.61949,0.63371 -8.43278,1.1882 -8.47397,1.23219 -0.0412,0.044 -2.13088,3.71854 -4.64375,8.16565 -8.51197,15.06401 -12.55465,23.40461 -11.87618,24.50241 0.47727,0.7723 4.60325,-2.1572 10.04712,-7.1334 2.35728,-2.1548 3.44923,-3.5416 4.44438,-5.6444 2.8471,-6.0161 7.54885,-10.6957 13.46726,-13.40367 3.18846,-1.45889 7.84912,-2.78933 9.77124,-2.78933 2.33114,0 2.16234,0.44135 -6.23832,16.3111 -3.06304,5.7864 -4.29882,9.0267 -3.60586,9.455 0.56059,0.3465 3.59177,-1.9448 8.8411,-6.683 3.66307,-3.3064 4.56186,-4.3696 5.3395,-6.3162 2.06276,-5.1636 7.15256,-11.28556 11.50184,-13.83441 2.4185,-1.41734 5.67158,-2.42789 6.7321,-2.09129 2.08762,0.66258 1.60221,4.02588 -1.1622,8.0528 -1.68317,2.4518 -2.90427,3.342 -4.07483,2.9705 -1.59505,-0.5063 -0.91232,-3.351 0.81237,-3.38486 0.76747,-0.0151 2.94219,-3.0653 3.45144,-4.84097 0.39945,-1.3928 0.38373,-1.41806 -0.71163,-1.14314 -3.50902,0.8807 -8.74086,6.89697 -12.34359,14.19427 -2.08189,4.2169 -2.40343,5.2109 -2.58109,7.9793 -0.20051,3.1243 -0.19045,3.1623 0.83556,3.1623 2.03064,0 7.74853,-4.052 13.7292,-9.7293 2.15391,-2.0447 2.85239,-3.1222 4.72781,-7.2931 1.21028,-2.6917 3.66487,-7.81439 5.45464,-11.38378 3.76367,-7.50602 4.17877,-6.84674 -3.69593,-5.86988 -4.80687,0.5963 -6.24767,0.54677 -6.24767,-0.21478 0,-0.65562 0.70206,-0.80224 7.46471,-1.55887 6.65622,-0.74472 6.74402,-0.76811 7.40219,-1.97192 2.69087,-4.92165 7.0279,-12.13043 7.7792,-12.93014 0.94019,-1.0008 3.04749,-1.31517 3.53443,-0.52728 0.31772,0.51409 -1.33633,4.16387 -4.42115,9.75554 -1.2073,2.18841 -2.12363,4.0504 -2.03629,4.13774 0.0873,0.0873 3.33118,-0.22924 7.20853,-0.70351 3.87735,-0.47427 7.68641,-0.85622 8.46456,-0.84878 1.26271,0.0121 1.3353,0.0739 0.67516,0.57517 -0.40682,0.3089 -4.52412,1.086 -9.14956,1.72687 -4.62543,0.64089 -8.4522,1.20634 -8.50392,1.25658 -0.34549,0.33558 -11.65668,20.81984 -13.30189,24.08934 -2.27107,4.5133 -3.54949,7.9473 -3.18077,8.5439 0.47989,0.7764 4.43403,-2.0356 10.1027,-7.1848 2.54973,-2.316 3.66239,-3.7068 4.8252,-6.0311 1.84045,-3.67887 5.19966,-7.4001 9.73446,-10.78359 3.89205,-2.90392 6.24585,-4.0975 8.10693,-4.1109 2.43889,-0.0176 2.97532,1.71759 1.45332,4.70096 -1.57349,3.08431 -8.72215,9.35033 -14.79374,12.96713 -2.64202,1.5739 -2.74773,1.7529 -3.67998,6.2309 -0.28571,1.3723 0.38235,3.328 1.13645,3.3267 0.8619,0 5.41497,-2.4959 8.20258,-4.4938 1.40435,-1.0066 5.13864,-4.2591 8.29843,-7.2279 6.26654,-5.88789 19.34784,-16.99612 21.71242,-18.43758 1.92107,-1.17111 3.07381,-1.14184 4.53515,0.11515 1.04789,0.90137 1.18693,1.31332 1.18693,3.51683 0,1.98925 -0.2521,2.92659 -1.24193,4.61773 -1.59487,2.72486 -4.4383,5.71959 -8.4796,8.93087 -3.10513,2.4673 -4.04565,3.731 -2.49916,3.3579 1.38746,-0.3348 3.29396,0.5245 4.22726,1.9053 l 0.92916,1.3747 5.66703,-4.9834 c 3.11687,-2.7408 6.00216,-5.26944 6.41176,-5.6191 0.67265,-0.57422 0.74473,-0.55402 0.74473,0.2087 0,0.55306 -2.17065,2.7655 -6.29046,6.4116 l -6.29047,5.5672 -0.5317,2.5742 c -1.51801,7.3495 -11.76335,21.8037 -21.43404,30.2394 -5.81027,5.0682 -9.81662,7.187 -10.96755,5.8002 z m 4.25789,-2.7218 c 3.3517,-2.1387 9.98465,-9.9371 16.14708,-18.9841 1.91012,-2.8043 6.81014,-11.3592 6.81014,-11.8899 0,-0.4411 -0.7403,0.1876 -5.95634,5.0582 -9.27076,8.6568 -19.57732,22.2617 -19.57732,25.8425 0,1.4723 0.23107,1.47 2.57644,-0.027 z M 42.2243,1028.7745 c 3.95702,-3.7015 5.17129,-5.6135 5.0295,-7.9193 -0.191,-3.1058 1.83123,-8.881 3.9007,-11.1397 l 0.87727,-0.9575 -0.89101,0 c -1.37752,0 -5.27232,3.8535 -8.16814,8.0815 -3.52122,5.1411 -5.26148,8.9557 -5.48304,12.0187 -0.1737,2.4014 -0.15376,2.4545 0.92194,2.4545 0.75609,0 1.94691,-0.7927 3.81278,-2.5382 z m 67.63784,-11.3989 c 4.82224,-4.7203 6.89533,-7.4578 10.23211,-13.5116 3.07282,-5.57485 3.24744,-6.17063 1.80846,-6.17063 -1.8204,0 -5.34721,2.07053 -8.24799,4.84233 -5.89339,5.6312 -9.7139,12.9039 -9.47241,18.0316 0.0824,1.7493 1.37308,1.024 5.67983,-3.1917 z m -58.34971,-1.648 c 0.84467,-1.8629 1.2252,-3.3169 1.13891,-4.3517 l -0.12959,-1.554 -0.91432,1.4894 c -1.10118,1.7939 -2.0737,4.6335 -2.47772,7.2346 -0.28907,1.861 -0.27757,1.8877 0.40839,0.9471 0.38821,-0.5323 1.27666,-2.2268 1.97433,-3.7654 z m 121.10904,-15.3839 c 3.43591,-3.4398 7.35577,-8.74299 7.35577,-9.95161 0,-3.4733 -8.40042,5.0187 -11.98083,12.11151 l -1.26363,2.5032 1.39875,-0.7842 c 0.76931,-0.4313 2.78979,-2.1768 4.48994,-3.8789 z m 87.24138,3.0458 c -0.14397,-0.1439 1.2763,-3.3332 3.15609,-7.08726 l 3.41776,-6.82555 -2.46089,2.19339 c -1.59551,1.42203 -2.6066,2.04774 -2.87513,1.77923 -0.26849,-0.26852 0.9393,-1.81321 3.4344,-4.39237 4.31362,-4.45896 7.18058,-8.16622 8.38547,-10.84333 0.89785,-1.9949 1.45797,-2.2037 2.58141,-0.9623 0.71736,0.79269 0.71911,0.93045 0.0336,2.65976 -0.39761,1.00307 -2.32582,4.8878 -4.28493,8.63274 l -3.56199,6.80897 10.41879,-10.31985 c 6.57343,-6.51101 10.73056,-10.31985 11.26354,-10.31985 0.48514,0 1.04841,0.44705 1.32319,1.05014 0.58179,1.27688 -0.30376,3.93535 -3.74851,11.25298 -1.25723,2.67069 -2.21789,4.92375 -2.13487,5.0068 0.0831,0.083 4.32494,-4.16876 9.42643,-9.44847 5.1015,-5.27971 9.65313,-9.80161 10.11478,-10.04869 1.32281,-0.70793 2.24513,0.51912 2.15431,2.86601 -0.0967,2.49946 -2.58332,7.39733 -6.89315,13.57752 -7.32628,10.5057 -6.91196,10.69757 3.28895,1.52305 2.78006,-2.50036 3.83324,-3.78611 4.83101,-5.89792 1.4644,-3.09942 5.29832,-8.09844 8.03799,-10.48077 2.22722,-1.93671 5.65801,-3.64631 7.32889,-3.6521 2.02869,-0.007 2.74882,0.67633 3.24835,3.08254 0.61885,2.98098 0.0234,6.0928 -1.88596,9.85922 -0.82125,1.61987 -1.41414,3.02427 -1.31754,3.12087 0.32645,0.32648 3.85379,-1.45478 5.29836,-2.67563 0.91977,-0.77729 2.09938,-2.64445 3.28631,-5.2018 1.832,-3.94713 5.66749,-10.68642 6.90111,-12.1258 0.66072,-0.77095 3.66506,-1.06111 4.07747,-0.3938 0.11928,0.19301 -0.74307,1.94784 -1.91635,3.89962 -5.618,9.34587 -11.44265,20.53701 -11.44265,21.98532 0,1.25848 2.6575,-0.75469 11.17919,-8.4687 1.74535,-1.5799 3.29529,-2.87254 3.4444,-2.87254 1.80511,0 -6.19889,7.80983 -12.11129,11.81748 -2.6889,1.82265 -4.01623,2.1151 -4.60512,1.01468 -0.6623,-1.23748 -0.57178,-2.58765 0.35373,-5.27774 l 0.81426,-2.36672 -2.05018,1.27446 c -1.28106,0.79635 -2.7178,1.30877 -3.82992,1.36593 -1.44993,0.0745 -2.02924,0.37457 -3.12608,1.61918 -2.91246,3.30474 -8.98593,6.98167 -10.78597,6.52989 -1.34435,-0.3374 -2.26331,-2.51042 -2.26331,-5.3518 l 0,-2.1688 -3.08531,2.79051 c -3.91827,3.54387 -7.85343,6.49276 -9.37894,7.02826 -1.04645,0.36735 -1.24327,0.29282 -1.66373,-0.63004 -1.14663,-2.51655 1.19953,-7.64257 7.63512,-16.68156 3.38993,-4.7613 4.12419,-6.02856 3.72336,-6.42608 -0.37118,-0.36812 -21.0345,20.80752 -22.85773,23.42447 -1.61096,2.31235 -3.28546,3.16715 -5.75788,2.93935 -0.90525,-0.083 -0.62813,-0.7121 2.4917,-5.65208 3.60888,-5.71448 10.5943,-17.81136 10.5943,-18.34654 0,-0.20837 -0.71814,0.19517 -1.59586,0.89677 -2.07682,1.66008 -18.2926,18.10646 -21.78557,22.09535 -2.51978,2.8776 -3.94026,3.7088 -4.82543,2.8236 z m 54.29489,-11.21322 c 3.95699,-3.70159 5.17124,-5.61356 5.02949,-7.91934 -0.19103,-3.10585 1.83123,-8.88098 3.90069,-11.13972 1.00496,-1.09688 0.41262,-1.25594 -1.32703,-0.35633 -2.68022,1.38599 -8.25737,8.70411 -10.8409,14.22496 -0.83351,1.78122 -1.38482,3.72357 -1.497,5.27412 -0.17371,2.40139 -0.15376,2.45447 0.92194,2.45447 0.75609,0 1.94689,-0.79273 3.81281,-2.53816 z m 9.28812,-13.04698 c 0.84465,-1.86288 1.22519,-3.31684 1.13889,-4.35165 l -0.12959,-1.55404 -0.91431,1.48947 c -1.10119,1.79387 -2.07372,4.63345 -2.47775,7.23453 -0.28904,1.86107 -0.27755,1.88776 0.40841,0.94716 0.3882,-0.53233 1.27664,-2.22679 1.97435,-3.76547 z m -103.14673,18.74486 c -1.04284,-1.05421 -0.84209,-1.11228 10.83566,-3.13481 5.45074,-0.94405 11.92083,-2.10186 14.37798,-2.57292 5.63017,-1.07936 6.38426,-1.08615 6.38426,-0.0575 0,0.43945 -0.28219,1.03319 -0.62706,1.31942 -0.74665,0.61966 -6.76251,1.66897 -18.09762,3.15667 -12.33192,1.61853 -12.52792,1.63816 -12.87322,1.2891 z m 123.41266,-38.09328 c -1.0879,-0.62856 -0.96947,-3.0693 0.21278,-4.38523 2.17556,-2.42152 5.3342,-0.99131 4.14599,1.87727 -0.88981,2.14811 -2.93995,3.32773 -4.35877,2.50796 z"
       id="path4201"
       inkscape:connector-curvature="0" />
  </g>
</svg>
