<?xml version="1.0" encoding="UTF-8" standalone="no"?>
<svg
   xmlns:dc="http://purl.org/dc/elements/1.1/"
   xmlns:cc="http://creativecommons.org/ns#"
   xmlns:rdf="http://www.w3.org/1999/02/22-rdf-syntax-ns#"
   xmlns:svg="http://www.w3.org/2000/svg"
   xmlns="http://www.w3.org/2000/svg"
   xmlns:sodipodi="http://sodipodi.sourceforge.net/DTD/sodipodi-0.dtd"
   xmlns:inkscape="http://www.inkscape.org/namespaces/inkscape"
   height="24"
   viewBox="0 0 24 24"
   width="24"
   id="svg2"
   version="1.1"
   inkscape:version="0.91 r13725"
   sodipodi:docname="gv_logo.svg">
  <metadata
     id="metadata14">
    <rdf:RDF>
      <cc:Work
         rdf:about="">
        <dc:format>image/svg+xml</dc:format>
        <dc:type
           rdf:resource="http://purl.org/dc/dcmitype/StillImage" />
        <dc:title></dc:title>
      </cc:Work>
    </rdf:RDF>
  </metadata>
  <defs
     id="defs12" />
  <sodipodi:namedview
     pagecolor="#ffffff"
     bordercolor="#666666"
     borderopacity="1"
     objecttolerance="10"
     gridtolerance="10"
     guidetolerance="10"
     inkscape:pageopacity="0"
     inkscape:pageshadow="2"
     inkscape:window-width="1440"
     inkscape:window-height="791"
     id="namedview10"
     showgrid="false"
     inkscape:zoom="24.541667"
     inkscape:cx="2.4966918"
     inkscape:cy="16.040654"
     inkscape:window-x="0"
     inkscape:window-y="0"
     inkscape:window-maximized="0"
     inkscape:current-layer="svg2" />
  <path
     inkscape:connector-curvature="0"
     d="m -1.8504673,-0.92523365 26.2149523,0 0,26.21495265 -26.2149523,0 0,-26.21495265 z"
     id="path4"
     style="fill:none" />
  <path
     style="fill-rule:evenodd"
     d="M 19.530748,5.7900332 21.83897,5.7581148 C 19.439946,2.8076259 16.166851,0.50744434 12.046509,0.45967941 9.1884801,0.46736095 7.3891048,1.2633975 5.7163806,2.1194289 L 6.5907081,3.7791811 C 7.8570444,3.1078526 8.9718125,2.389459 11.94159,2.2471025 c 3.380375,0.051735 5.649456,1.5787111 7.589158,3.5429307 z"
     id="path4233-2"
     inkscape:connector-curvature="0"
     sodipodi:nodetypes="ccccccc" />
  <path
     style="fill-rule:evenodd"
     d="M 2.9756554,4.4010385 C -0.88220163,8.2762689 -1.5929206,19.065876 10.265501,21.262076 l -0.8218977,-1.7285 C 4.3161886,17.942133 -0.42210021,13.103256 3.8025624,6.2029794 Z"
     id="path4235-0"
     inkscape:connector-curvature="0"
     sodipodi:nodetypes="ccccc" />
  <path
     style="fill-rule:evenodd"
     d="m 14.232032,19.435736 c 2.769528,-0.450831 5.671597,-2.82272 6.646621,-6.1639 l -10.085061,-0.08829 -0.771357,-1.780219 13.39357,0.0096 c -1.405131,8.052418 -7.140945,9.421608 -9.898465,9.849195 z"
     id="path4237-1"
     inkscape:connector-curvature="0"
     sodipodi:nodetypes="ccccccc" />
  <path
     style="fill-rule:evenodd"
     d="m 2.1694468,0.38961257 1.9296645,0 7.6829237,17.74159443 1.950595,-4.158667 1.998595,-0.01351 -3.94919,9.357678 z"
     id="path4239-8"
     inkscape:connector-curvature="0"
     sodipodi:nodetypes="ccccccc" />
  <path
     style="fill-rule:evenodd;"
     d="M 19.485007,0.35699971 21.557609,0.32438685 20.414105,3.129124 18.806053,1.9876597 Z"
     id="path4241-0"
     inkscape:connector-curvature="0"
     sodipodi:nodetypes="ccccc" />
  <path
     style="fill-rule:evenodd;"
     d="m 17.591077,4.9228483 1.465114,1.2719157 -1.710922,4.325691 -2.093535,0.03261 z"
     id="path4243-7"
     inkscape:connector-curvature="0"
     sodipodi:nodetypes="ccccc" />
</svg>
