<?xml version="1.0" encoding="UTF-8" standalone="no"?>
<!-- Created with Inkscape (http://www.inkscape.org/) -->

<svg
   xmlns:dc="http://purl.org/dc/elements/1.1/"
   xmlns:cc="http://creativecommons.org/ns#"
   xmlns:rdf="http://www.w3.org/1999/02/22-rdf-syntax-ns#"
   xmlns:svg="http://www.w3.org/2000/svg"
   xmlns="http://www.w3.org/2000/svg"
   xmlns:sodipodi="http://sodipodi.sourceforge.net/DTD/sodipodi-0.dtd"
   xmlns:inkscape="http://www.inkscape.org/namespaces/inkscape"
   width="400"
   height="100"
   viewBox="0 0 400.00001 100"
   id="svg2"
   version="1.1"
   inkscape:version="0.91 r13725"
   sodipodi:docname="welcome.svg">
  <defs
     id="defs4" />
  <sodipodi:namedview
     id="base"
     pagecolor="#ffffff"
     bordercolor="#666666"
     borderopacity="1.0"
     inkscape:pageopacity="0.0"
     inkscape:pageshadow="2"
     inkscape:zoom="0.8672949"
     inkscape:cx="259.42238"
     inkscape:cy="-63.474649"
     inkscape:document-units="px"
     inkscape:current-layer="layer1"
     showgrid="false"
     units="px"
     inkscape:window-width="1440"
     inkscape:window-height="791"
     inkscape:window-x="0"
     inkscape:window-y="1"
     inkscape:window-maximized="1" />
  <metadata
     id="metadata7">
    <rdf:RDF>
      <cc:Work
         rdf:about="">
        <dc:format>image/svg+xml</dc:format>
        <dc:type
           rdf:resource="http://purl.org/dc/dcmitype/StillImage" />
        <dc:title></dc:title>
      </cc:Work>
    </rdf:RDF>
  </metadata>
  <g
     inkscape:label="Layer 1"
     inkscape:groupmode="layer"
     id="layer1"
     transform="translate(0,-952.36216)">
    <path
       d="M 17.154106,1005.3064 C 9.1790388,968.10762 6.6391214,958.94591 4.117915,958.28371 c -1.7222284,-0.45232 -2.6874088,-1.54068 -2.1448556,-2.41854 1.3983153,-2.2625 54.8006116,-2.06298 54.8006116,0.20473 0,0.99049 -1.184226,1.80089 -2.631584,1.80089 -2.607477,0 -8.173752,15.01542 -8.173752,22.0493 0,4.69176 7.529466,37.96541 8.975978,39.66601 0.648167,0.7618 3.803094,-11.3942 7.010969,-27.01346 3.207839,-15.61931 6.245304,-29.81694 6.749882,-31.55029 0.597121,-2.05125 -0.06799,-3.15156 -1.905252,-3.15156 -1.552495,0 -2.822678,-0.8104 -2.822678,-1.80089 0,-0.99048 3.241596,-1.80089 7.203549,-1.80089 3.961953,0 7.203561,0.36837 7.203561,0.8186 0,0.45023 -1.823409,2.67881 -4.052007,4.95244 -3.283791,3.3501 -5.759183,12.4136 -13.056438,47.80525 -4.952459,24.0191 -9.83724,43.6714 -10.855112,43.6716 -1.017853,0 -3.762101,-9.3195 -6.09832,-20.7102 -2.336239,-11.3905 -4.431994,-20.7102 -4.657245,-20.7102 -0.225269,0 -2.321024,9.3197 -4.657243,20.7102 -2.336239,11.3907 -5.080487,20.708 -6.09834,20.7052 -1.017872,0 -6.307857,-20.7952 -11.755533,-46.2055 z m 16.286263,-24.36285 c -4.620726,-21.43907 -4.941448,-22.19137 -9.698004,-22.74853 -4.33028,-0.50721 -4.802161,-0.076 -3.941326,3.60178 0.537866,2.29791 3.398734,15.11838 6.357513,28.48997 8.066333,36.45453 7.396633,34.89273 9.895191,23.07283 1.947977,-9.2153 1.685594,-12.4698 -2.613374,-32.41605 z m 12.527966,-13.92102 c 0,-1.89997 0.491878,-4.73638 1.093116,-6.30311 0.793948,-2.06898 0.0018,-2.84863 -2.894005,-2.84863 -2.895869,0 -3.687952,0.77965 -2.894024,2.84863 0.601238,1.56673 1.093134,4.40314 1.093134,6.30311 0,1.89995 0.810391,3.45448 1.80089,3.45448 0.990479,0 1.800889,-1.55453 1.800889,-3.45448 z M 190.60463,1048.005 c -3.15588,-1.9244 -6.60007,-5.1097 -7.65377,-7.0785 -1.16754,-2.1816 -1.91582,-17.4124 -1.91582,-38.9956 l 0,-35.41584 6.12302,-6.12303 c 4.87484,-4.87484 7.558,-6.12302 13.16245,-6.12302 3.8717,0 8.61023,1.1486 10.53011,2.55244 2.46358,1.80141 4.15451,2.00147 5.74688,0.67992 1.7657,-1.46539 2.23491,0.4267 2.15826,8.70315 l -0.0979,10.57561 -3.08612,-8.0532 c -5.68849,-14.84402 -16.76204,-16.64649 -21.37858,-3.47988 -2.70696,7.72046 -3.06323,64.73015 -0.46303,74.09275 3.90366,14.0562 15.47617,12.4564 21.4063,-2.9592 l 3.52966,-9.1756 0.0937,11.4761 c 0.0804,9.8524 -0.27741,11.1681 -2.53013,9.2984 -2.07878,-1.7253 -3.47163,-1.584 -6.70381,0.6799 -5.45181,3.8186 -11.95413,3.5938 -18.92129,-0.6544 z m 51.83425,1.3354 c -2.38076,-1.2789 -6.02754,-4.6106 -8.10401,-7.4034 -3.42572,-4.6077 -3.82843,-7.9313 -4.34814,-35.8874 -0.45884,-24.68171 -0.012,-32.28062 2.25196,-38.20594 6.63699,-17.3787 31.69248,-18.57605 39.6092,-1.89281 2.60232,5.484 2.97184,11.36151 2.49397,39.66875 l -0.56102,33.2308 -5.63383,5.6294 c -6.49136,6.4863 -18.46797,8.7508 -25.70813,4.8606 z m 17.92149,-7.9549 c 2.50291,-6.5832 2.199,-73.27785 -0.35951,-78.89315 -2.93433,-6.44018 -8.29344,-7.66057 -12.9948,-2.95917 -3.68776,3.68774 -3.84034,5.41886 -3.84034,43.56902 0,39.4938 0.0248,39.7489 4.21922,43.1452 5.08057,4.114 10.30742,2.1555 12.97543,-4.8619 z m -177.02359,7.0598 4.052007,-0.7805 0,-44.8971 c 0,-38.70777 -0.372388,-44.89691 -2.701334,-44.89691 -1.485735,0 -2.701334,-0.8104 -2.701334,-1.80089 0,-1.09144 7.803831,-1.80089 19.809791,-1.80089 l 19.80978,0 -0.14446,11.25556 -0.14445,11.25556 -3.00716,-9.00445 c -2.92413,-8.75576 -3.21858,-9.01974 -10.66099,-9.55822 l -7.653769,-0.55377 0,21.71421 0,21.7142 4.547249,0 c 3.61179,0 4.76953,-1.11143 5.62777,-5.40259 1.87523,-9.37608 4.23209,-5.86583 4.23209,6.30299 0,11.0946 -2.69268,16.343 -3.92673,7.6538 -0.41205,-2.9013 -1.98196,-4.2138 -5.52794,-4.6218 l -4.952439,-0.5699 0,21.8339 0,21.8339 7.653769,-0.5538 c 7.44241,-0.5385 7.73686,-0.8024 10.66099,-9.5583 l 3.00716,-9.0044 0.14445,10.3553 0.14446,10.355 -21.16046,-0.2453 c -11.638245,-0.1344 -19.337059,-0.5965 -17.10845,-1.0256 z m 49.52445,0.029 c 2.89516,-0.7566 3.15157,-4.4756 3.15157,-45.7138 0,-39.45711 -0.33982,-44.89024 -2.80763,-44.89024 -1.54418,0 -2.30675,-0.81039 -1.69458,-1.8009 0.61214,-0.99047 5.92758,-1.80088 11.81206,-1.80088 5.93209,0 10.69905,0.80238 10.69905,1.80088 0,0.99051 -1.21561,1.8009 -2.70134,1.8009 -2.32914,0 -2.70133,6.20304 -2.70133,45.02224 l 0,45.0222 6.98305,0 c 8.08423,0 10.7893,-2.5495 12.24905,-11.545 1.59663,-9.8388 4.17947,-7.7123 4.17947,3.4411 l 0,9.9048 -21.16047,-0.2088 c -11.63824,-0.115 -19.74224,-0.5795 -18.0089,-1.0325 z m 154.87649,-0.7038 c 2.86285,-1.6674 3.15156,-5.7921 3.15156,-45.024 0,-36.72838 -0.40406,-43.34347 -2.70133,-44.22498 -5.1235,-1.9661 -2.6818,-4.25304 4.54084,-4.25304 8.9148,0 8.69048,-0.45893 17.16343,35.11734 3.53846,14.85738 6.9175,28.63408 7.50904,30.61508 0.6327,2.1189 3.87575,-9.9236 7.87725,-29.25082 3.74097,-18.06887 7.30642,-33.66906 7.92324,-34.66706 1.45779,-2.35876 17.11688,-2.37125 17.11688,-0.0134 0,0.99051 -1.21561,1.8009 -2.70133,1.8009 -2.32896,0 -2.70134,6.18839 -2.70134,44.89018 0,41.2382 0.2564,44.9571 3.15156,45.7137 1.73334,0.453 -2.52125,0.8236 -9.45467,0.8236 -6.93343,0 -11.18803,-0.3706 -9.45467,-0.8236 2.8816,-0.7529 3.13446,-4.0132 2.95207,-38.0599 -0.22585,-42.15528 0.34812,-42.74193 -10.7012,10.9373 -3.21112,15.6002 -6.49809,28.364 -7.30435,28.364 -1.68553,0 -2.43451,-2.6398 -12.51786,-44.1218 -4.09305,-16.83822 -7.76922,-30.9527 -8.16929,-31.36542 -0.40004,-0.41269 -0.72737,15.93855 -0.72737,36.33592 0,33.8061 0.27874,37.1593 3.15154,37.9099 1.73335,0.453 -0.0901,0.8929 -4.05199,0.9779 -5.71173,0.1229 -6.55089,-0.2261 -4.05201,-1.6816 z m 72.03557,0.7038 c 2.89516,-0.7566 3.15157,-4.4756 3.15157,-45.7138 0,-38.70185 -0.3724,-44.89024 -2.70133,-44.89024 -1.48574,0 -2.70134,-0.81039 -2.70134,-1.8009 0,-2.09698 39.57539,-2.54579 39.69967,-0.45021 0.0442,0.74285 0.3591,5.20795 0.70009,9.92244 0.73477,10.15896 -1.66625,13.07095 -3.16456,3.83799 -1.45384,-8.95901 -4.1668,-11.50932 -12.24326,-11.50932 l -6.98304,0 0,21.73029 0,21.73035 4.93704,-0.5699 c 3.26494,-0.3769 5.15395,-1.78974 5.57746,-4.17162 1.61674,-9.09264 3.89261,-6.14454 3.89261,5.04242 0,11.375 -2.67429,16.8329 -3.92676,8.0141 -0.41205,-2.9013 -1.98195,-4.2139 -5.52791,-4.6219 l -4.95244,-0.5698 0,21.7304 0,21.7301 6.98304,0 c 8.08607,0 10.32502,-2.1035 12.60973,-11.8467 l 1.65608,-7.0625 0.40602,5.8529 c 0.45772,6.5982 0.51064,10.4182 0.18095,13.0563 -0.13696,1.0946 -8.17089,1.7191 -20.48511,1.5921 -11.143,-0.115 -18.8418,-0.5795 -17.10845,-1.0325 z"
       id="path4244"
       inkscape:connector-curvature="0"
       sodipodi:nodetypes="ssssssssssssssscssscsssssssscscssscsscssssscsssscsssccssscsscsssssscsscsssscccsscccssssscccsscccsssssssssscssscsscscsscscssssscsssscssccccssscssscccssssscccsscscscc" />
  </g>
</svg>
